G04 #@! TF.FileFunction,Legend,Bot*
%FSLAX46Y46*%
G04 Gerber Fmt 4.6, Leading zero omitted, Abs format (unit mm)*
G04 Created by KiCad (PCBNEW 4.0.6+dfsg1-1) date Sun Oct 29 21:06:04 2017*
%MOMM*%
%LPD*%
G01*
G04 APERTURE LIST*
%ADD10C,0.100000*%
%ADD11C,0.120000*%
%ADD12C,0.150000*%
%ADD13R,1.500000X1.250000*%
%ADD14R,2.600000X1.800000*%
%ADD15R,1.800000X2.600000*%
%ADD16R,0.600000X0.700000*%
%ADD17R,2.600000X2.600000*%
%ADD18C,2.600000*%
%ADD19R,1.500000X1.300000*%
%ADD20R,1.500000X0.400000*%
%ADD21R,2.000000X3.800000*%
%ADD22R,2.000000X1.500000*%
G04 APERTURE END LIST*
D10*
D11*
X182761000Y-136564000D02*
X183761000Y-136564000D01*
X183761000Y-138264000D02*
X182761000Y-138264000D01*
X182618000Y-127342000D02*
X181618000Y-127342000D01*
X181618000Y-125642000D02*
X182618000Y-125642000D01*
X163832000Y-122562000D02*
X168132000Y-122562000D01*
X163832000Y-120262000D02*
X168132000Y-120262000D01*
X163832000Y-122562000D02*
X163832000Y-120262000D01*
X167124000Y-119722000D02*
X166124000Y-119722000D01*
X166124000Y-118022000D02*
X167124000Y-118022000D01*
X165982000Y-124208000D02*
X165982000Y-128508000D01*
X168282000Y-124208000D02*
X168282000Y-128508000D01*
X165982000Y-124208000D02*
X168282000Y-124208000D01*
X162948000Y-125130000D02*
X162948000Y-126330000D01*
X161098000Y-125130000D02*
X162948000Y-125130000D01*
X161098000Y-126330000D02*
X162948000Y-126330000D01*
X166970000Y-114055000D02*
X165770000Y-114055000D01*
X165770000Y-115815000D02*
X166970000Y-115815000D01*
X171485000Y-115815000D02*
X172685000Y-115815000D01*
X172685000Y-114055000D02*
X171485000Y-114055000D01*
X171485000Y-119625000D02*
X172685000Y-119625000D01*
X172685000Y-117865000D02*
X171485000Y-117865000D01*
X156810000Y-118119000D02*
X155610000Y-118119000D01*
X155610000Y-119879000D02*
X156810000Y-119879000D01*
X156810000Y-120659000D02*
X155610000Y-120659000D01*
X155610000Y-122419000D02*
X156810000Y-122419000D01*
X156810000Y-115452000D02*
X155610000Y-115452000D01*
X155610000Y-117212000D02*
X156810000Y-117212000D01*
X156810000Y-113166000D02*
X155610000Y-113166000D01*
X155610000Y-114926000D02*
X156810000Y-114926000D01*
X172755000Y-122165000D02*
X173955000Y-122165000D01*
X173955000Y-120405000D02*
X172755000Y-120405000D01*
X170686500Y-109901500D02*
X172586500Y-109901500D01*
X172086500Y-112221500D02*
X170686500Y-112221500D01*
X177170000Y-128670000D02*
X177170000Y-129930000D01*
X177170000Y-135490000D02*
X177170000Y-134230000D01*
X173410000Y-128670000D02*
X177170000Y-128670000D01*
X171160000Y-135490000D02*
X177170000Y-135490000D01*
D12*
X183427666Y-136021143D02*
X183475285Y-136068762D01*
X183618142Y-136116381D01*
X183713380Y-136116381D01*
X183856238Y-136068762D01*
X183951476Y-135973524D01*
X183999095Y-135878286D01*
X184046714Y-135687810D01*
X184046714Y-135544952D01*
X183999095Y-135354476D01*
X183951476Y-135259238D01*
X183856238Y-135164000D01*
X183713380Y-135116381D01*
X183618142Y-135116381D01*
X183475285Y-135164000D01*
X183427666Y-135211619D01*
X182475285Y-136116381D02*
X183046714Y-136116381D01*
X182761000Y-136116381D02*
X182761000Y-135116381D01*
X182856238Y-135259238D01*
X182951476Y-135354476D01*
X183046714Y-135402095D01*
X182284666Y-128599143D02*
X182332285Y-128646762D01*
X182475142Y-128694381D01*
X182570380Y-128694381D01*
X182713238Y-128646762D01*
X182808476Y-128551524D01*
X182856095Y-128456286D01*
X182903714Y-128265810D01*
X182903714Y-128122952D01*
X182856095Y-127932476D01*
X182808476Y-127837238D01*
X182713238Y-127742000D01*
X182570380Y-127694381D01*
X182475142Y-127694381D01*
X182332285Y-127742000D01*
X182284666Y-127789619D01*
X181903714Y-127789619D02*
X181856095Y-127742000D01*
X181760857Y-127694381D01*
X181522761Y-127694381D01*
X181427523Y-127742000D01*
X181379904Y-127789619D01*
X181332285Y-127884857D01*
X181332285Y-127980095D01*
X181379904Y-128122952D01*
X181951333Y-128694381D01*
X181332285Y-128694381D01*
X169838666Y-123801143D02*
X169886285Y-123848762D01*
X170029142Y-123896381D01*
X170124380Y-123896381D01*
X170267238Y-123848762D01*
X170362476Y-123753524D01*
X170410095Y-123658286D01*
X170457714Y-123467810D01*
X170457714Y-123324952D01*
X170410095Y-123134476D01*
X170362476Y-123039238D01*
X170267238Y-122944000D01*
X170124380Y-122896381D01*
X170029142Y-122896381D01*
X169886285Y-122944000D01*
X169838666Y-122991619D01*
X168981523Y-123229714D02*
X168981523Y-123896381D01*
X169219619Y-122848762D02*
X169457714Y-123563048D01*
X168838666Y-123563048D01*
X164060143Y-118578334D02*
X164107762Y-118530715D01*
X164155381Y-118387858D01*
X164155381Y-118292620D01*
X164107762Y-118149762D01*
X164012524Y-118054524D01*
X163917286Y-118006905D01*
X163726810Y-117959286D01*
X163583952Y-117959286D01*
X163393476Y-118006905D01*
X163298238Y-118054524D01*
X163203000Y-118149762D01*
X163155381Y-118292620D01*
X163155381Y-118387858D01*
X163203000Y-118530715D01*
X163250619Y-118578334D01*
X163155381Y-119483096D02*
X163155381Y-119006905D01*
X163631571Y-118959286D01*
X163583952Y-119006905D01*
X163536333Y-119102143D01*
X163536333Y-119340239D01*
X163583952Y-119435477D01*
X163631571Y-119483096D01*
X163726810Y-119530715D01*
X163964905Y-119530715D01*
X164060143Y-119483096D01*
X164107762Y-119435477D01*
X164155381Y-119340239D01*
X164155381Y-119102143D01*
X164107762Y-119006905D01*
X164060143Y-118959286D01*
X165089143Y-127341334D02*
X165136762Y-127293715D01*
X165184381Y-127150858D01*
X165184381Y-127055620D01*
X165136762Y-126912762D01*
X165041524Y-126817524D01*
X164946286Y-126769905D01*
X164755810Y-126722286D01*
X164612952Y-126722286D01*
X164422476Y-126769905D01*
X164327238Y-126817524D01*
X164232000Y-126912762D01*
X164184381Y-127055620D01*
X164184381Y-127150858D01*
X164232000Y-127293715D01*
X164279619Y-127341334D01*
X164184381Y-128198477D02*
X164184381Y-128008000D01*
X164232000Y-127912762D01*
X164279619Y-127865143D01*
X164422476Y-127769905D01*
X164612952Y-127722286D01*
X164993905Y-127722286D01*
X165089143Y-127769905D01*
X165136762Y-127817524D01*
X165184381Y-127912762D01*
X165184381Y-128103239D01*
X165136762Y-128198477D01*
X165089143Y-128246096D01*
X164993905Y-128293715D01*
X164755810Y-128293715D01*
X164660571Y-128246096D01*
X164612952Y-128198477D01*
X164565333Y-128103239D01*
X164565333Y-127912762D01*
X164612952Y-127817524D01*
X164660571Y-127769905D01*
X164755810Y-127722286D01*
X162536095Y-124882381D02*
X162536095Y-123882381D01*
X162298000Y-123882381D01*
X162155142Y-123930000D01*
X162059904Y-124025238D01*
X162012285Y-124120476D01*
X161964666Y-124310952D01*
X161964666Y-124453810D01*
X162012285Y-124644286D01*
X162059904Y-124739524D01*
X162155142Y-124834762D01*
X162298000Y-124882381D01*
X162536095Y-124882381D01*
X161012285Y-124882381D02*
X161583714Y-124882381D01*
X161298000Y-124882381D02*
X161298000Y-123882381D01*
X161393238Y-124025238D01*
X161488476Y-124120476D01*
X161583714Y-124168095D01*
X163647381Y-114768334D02*
X163171190Y-114435000D01*
X163647381Y-114196905D02*
X162647381Y-114196905D01*
X162647381Y-114577858D01*
X162695000Y-114673096D01*
X162742619Y-114720715D01*
X162837857Y-114768334D01*
X162980714Y-114768334D01*
X163075952Y-114720715D01*
X163123571Y-114673096D01*
X163171190Y-114577858D01*
X163171190Y-114196905D01*
X162647381Y-115673096D02*
X162647381Y-115196905D01*
X163123571Y-115149286D01*
X163075952Y-115196905D01*
X163028333Y-115292143D01*
X163028333Y-115530239D01*
X163075952Y-115625477D01*
X163123571Y-115673096D01*
X163218810Y-115720715D01*
X163456905Y-115720715D01*
X163552143Y-115673096D01*
X163599762Y-115625477D01*
X163647381Y-115530239D01*
X163647381Y-115292143D01*
X163599762Y-115196905D01*
X163552143Y-115149286D01*
X175712381Y-114641334D02*
X175236190Y-114308000D01*
X175712381Y-114069905D02*
X174712381Y-114069905D01*
X174712381Y-114450858D01*
X174760000Y-114546096D01*
X174807619Y-114593715D01*
X174902857Y-114641334D01*
X175045714Y-114641334D01*
X175140952Y-114593715D01*
X175188571Y-114546096D01*
X175236190Y-114450858D01*
X175236190Y-114069905D01*
X174712381Y-114974667D02*
X174712381Y-115641334D01*
X175712381Y-115212762D01*
X175712381Y-118451334D02*
X175236190Y-118118000D01*
X175712381Y-117879905D02*
X174712381Y-117879905D01*
X174712381Y-118260858D01*
X174760000Y-118356096D01*
X174807619Y-118403715D01*
X174902857Y-118451334D01*
X175045714Y-118451334D01*
X175140952Y-118403715D01*
X175188571Y-118356096D01*
X175236190Y-118260858D01*
X175236190Y-117879905D01*
X175140952Y-119022762D02*
X175093333Y-118927524D01*
X175045714Y-118879905D01*
X174950476Y-118832286D01*
X174902857Y-118832286D01*
X174807619Y-118879905D01*
X174760000Y-118927524D01*
X174712381Y-119022762D01*
X174712381Y-119213239D01*
X174760000Y-119308477D01*
X174807619Y-119356096D01*
X174902857Y-119403715D01*
X174950476Y-119403715D01*
X175045714Y-119356096D01*
X175093333Y-119308477D01*
X175140952Y-119213239D01*
X175140952Y-119022762D01*
X175188571Y-118927524D01*
X175236190Y-118879905D01*
X175331429Y-118832286D01*
X175521905Y-118832286D01*
X175617143Y-118879905D01*
X175664762Y-118927524D01*
X175712381Y-119022762D01*
X175712381Y-119213239D01*
X175664762Y-119308477D01*
X175617143Y-119356096D01*
X175521905Y-119403715D01*
X175331429Y-119403715D01*
X175236190Y-119356096D01*
X175188571Y-119308477D01*
X175140952Y-119213239D01*
X159805666Y-119705381D02*
X160139000Y-119229190D01*
X160377095Y-119705381D02*
X160377095Y-118705381D01*
X159996142Y-118705381D01*
X159900904Y-118753000D01*
X159853285Y-118800619D01*
X159805666Y-118895857D01*
X159805666Y-119038714D01*
X159853285Y-119133952D01*
X159900904Y-119181571D01*
X159996142Y-119229190D01*
X160377095Y-119229190D01*
X159329476Y-119705381D02*
X159139000Y-119705381D01*
X159043761Y-119657762D01*
X158996142Y-119610143D01*
X158900904Y-119467286D01*
X158853285Y-119276810D01*
X158853285Y-118895857D01*
X158900904Y-118800619D01*
X158948523Y-118753000D01*
X159043761Y-118705381D01*
X159234238Y-118705381D01*
X159329476Y-118753000D01*
X159377095Y-118800619D01*
X159424714Y-118895857D01*
X159424714Y-119133952D01*
X159377095Y-119229190D01*
X159329476Y-119276810D01*
X159234238Y-119324429D01*
X159043761Y-119324429D01*
X158948523Y-119276810D01*
X158900904Y-119229190D01*
X158853285Y-119133952D01*
X160662857Y-121991381D02*
X160996191Y-121515190D01*
X161234286Y-121991381D02*
X161234286Y-120991381D01*
X160853333Y-120991381D01*
X160758095Y-121039000D01*
X160710476Y-121086619D01*
X160662857Y-121181857D01*
X160662857Y-121324714D01*
X160710476Y-121419952D01*
X160758095Y-121467571D01*
X160853333Y-121515190D01*
X161234286Y-121515190D01*
X159710476Y-121991381D02*
X160281905Y-121991381D01*
X159996191Y-121991381D02*
X159996191Y-120991381D01*
X160091429Y-121134238D01*
X160186667Y-121229476D01*
X160281905Y-121277095D01*
X159091429Y-120991381D02*
X158996190Y-120991381D01*
X158900952Y-121039000D01*
X158853333Y-121086619D01*
X158805714Y-121181857D01*
X158758095Y-121372333D01*
X158758095Y-121610429D01*
X158805714Y-121800905D01*
X158853333Y-121896143D01*
X158900952Y-121943762D01*
X158996190Y-121991381D01*
X159091429Y-121991381D01*
X159186667Y-121943762D01*
X159234286Y-121896143D01*
X159281905Y-121800905D01*
X159329524Y-121610429D01*
X159329524Y-121372333D01*
X159281905Y-121181857D01*
X159234286Y-121086619D01*
X159186667Y-121039000D01*
X159091429Y-120991381D01*
X160662857Y-116784381D02*
X160996191Y-116308190D01*
X161234286Y-116784381D02*
X161234286Y-115784381D01*
X160853333Y-115784381D01*
X160758095Y-115832000D01*
X160710476Y-115879619D01*
X160662857Y-115974857D01*
X160662857Y-116117714D01*
X160710476Y-116212952D01*
X160758095Y-116260571D01*
X160853333Y-116308190D01*
X161234286Y-116308190D01*
X159710476Y-116784381D02*
X160281905Y-116784381D01*
X159996191Y-116784381D02*
X159996191Y-115784381D01*
X160091429Y-115927238D01*
X160186667Y-116022476D01*
X160281905Y-116070095D01*
X158758095Y-116784381D02*
X159329524Y-116784381D01*
X159043810Y-116784381D02*
X159043810Y-115784381D01*
X159139048Y-115927238D01*
X159234286Y-116022476D01*
X159329524Y-116070095D01*
X160789857Y-114625381D02*
X161123191Y-114149190D01*
X161361286Y-114625381D02*
X161361286Y-113625381D01*
X160980333Y-113625381D01*
X160885095Y-113673000D01*
X160837476Y-113720619D01*
X160789857Y-113815857D01*
X160789857Y-113958714D01*
X160837476Y-114053952D01*
X160885095Y-114101571D01*
X160980333Y-114149190D01*
X161361286Y-114149190D01*
X159837476Y-114625381D02*
X160408905Y-114625381D01*
X160123191Y-114625381D02*
X160123191Y-113625381D01*
X160218429Y-113768238D01*
X160313667Y-113863476D01*
X160408905Y-113911095D01*
X159456524Y-113720619D02*
X159408905Y-113673000D01*
X159313667Y-113625381D01*
X159075571Y-113625381D01*
X158980333Y-113673000D01*
X158932714Y-113720619D01*
X158885095Y-113815857D01*
X158885095Y-113911095D01*
X158932714Y-114053952D01*
X159504143Y-114625381D01*
X158885095Y-114625381D01*
X173997857Y-123515381D02*
X174331191Y-123039190D01*
X174569286Y-123515381D02*
X174569286Y-122515381D01*
X174188333Y-122515381D01*
X174093095Y-122563000D01*
X174045476Y-122610619D01*
X173997857Y-122705857D01*
X173997857Y-122848714D01*
X174045476Y-122943952D01*
X174093095Y-122991571D01*
X174188333Y-123039190D01*
X174569286Y-123039190D01*
X173045476Y-123515381D02*
X173616905Y-123515381D01*
X173331191Y-123515381D02*
X173331191Y-122515381D01*
X173426429Y-122658238D01*
X173521667Y-122753476D01*
X173616905Y-122801095D01*
X172712143Y-122515381D02*
X172093095Y-122515381D01*
X172426429Y-122896333D01*
X172283571Y-122896333D01*
X172188333Y-122943952D01*
X172140714Y-122991571D01*
X172093095Y-123086810D01*
X172093095Y-123324905D01*
X172140714Y-123420143D01*
X172188333Y-123467762D01*
X172283571Y-123515381D01*
X172569286Y-123515381D01*
X172664524Y-123467762D01*
X172712143Y-123420143D01*
X172211905Y-108291381D02*
X172211905Y-109100905D01*
X172164286Y-109196143D01*
X172116667Y-109243762D01*
X172021429Y-109291381D01*
X171830952Y-109291381D01*
X171735714Y-109243762D01*
X171688095Y-109196143D01*
X171640476Y-109100905D01*
X171640476Y-108291381D01*
X171211905Y-108386619D02*
X171164286Y-108339000D01*
X171069048Y-108291381D01*
X170830952Y-108291381D01*
X170735714Y-108339000D01*
X170688095Y-108386619D01*
X170640476Y-108481857D01*
X170640476Y-108577095D01*
X170688095Y-108719952D01*
X171259524Y-109291381D01*
X170640476Y-109291381D01*
X176021905Y-136032381D02*
X176021905Y-136841905D01*
X175974286Y-136937143D01*
X175926667Y-136984762D01*
X175831429Y-137032381D01*
X175640952Y-137032381D01*
X175545714Y-136984762D01*
X175498095Y-136937143D01*
X175450476Y-136841905D01*
X175450476Y-136032381D01*
X174545714Y-136365714D02*
X174545714Y-137032381D01*
X174783810Y-135984762D02*
X175021905Y-136699048D01*
X174402857Y-136699048D01*
%LPC*%
D13*
X184511000Y-137414000D03*
X182011000Y-137414000D03*
X180868000Y-126492000D03*
X183368000Y-126492000D03*
D14*
X165432000Y-121412000D03*
X168832000Y-121412000D03*
D13*
X165374000Y-118872000D03*
X167874000Y-118872000D03*
D15*
X167132000Y-125808000D03*
X167132000Y-129208000D03*
D16*
X161098000Y-125730000D03*
X162498000Y-125730000D03*
D17*
X158242000Y-128016000D03*
D18*
X158242000Y-134016000D03*
X162942000Y-131016000D03*
D19*
X165020000Y-114935000D03*
X167720000Y-114935000D03*
X173435000Y-114935000D03*
X170735000Y-114935000D03*
X173435000Y-118745000D03*
X170735000Y-118745000D03*
X154860000Y-118999000D03*
X157560000Y-118999000D03*
X154860000Y-121539000D03*
X157560000Y-121539000D03*
X154860000Y-116332000D03*
X157560000Y-116332000D03*
X154860000Y-114046000D03*
X157560000Y-114046000D03*
X174705000Y-121285000D03*
X172005000Y-121285000D03*
D20*
X172716500Y-110411500D03*
X172716500Y-111061500D03*
X172716500Y-111711500D03*
X170056500Y-111711500D03*
X170056500Y-111061500D03*
X170056500Y-110411500D03*
D21*
X178410000Y-132080000D03*
D22*
X172110000Y-132080000D03*
X172110000Y-129780000D03*
X172110000Y-134380000D03*
M02*
