M48
;DRILL file {KiCad 4.0.6+dfsg1-1} date Sun Oct 29 21:06:32 2017
;FORMAT={2:4/ absolute / inch / suppress trailing zeros}
FMAT,2
INCH,LZ
T1C0.013
T2C0.063
%
G90
G05
M72
T1
X0615Y-0449
X0615Y-0458
X0615Y-0469
X0615Y-0478
X06195Y-04855
X06275Y-04875
X0628Y-0436
X0628Y-0445
X065Y-0445
X0658Y-0521
X066Y-04325
X06725Y-0445
X06725Y-05
X0685Y-0445
X0685Y-04575
X069Y-0465
X069Y-04725
X0696Y-05385
X07095Y-0541
X07105Y-05315
X07175Y-044
X0719Y-0523
X0721Y-0507
X0722Y-0535
X07275Y-04865
X073Y-0435
X07305Y-0494
X074Y-0466
X07435Y-0494
T2
X0623Y-0504
X0623Y-052762
X06415Y-051581
T0
M30
