G04 #@! TF.FileFunction,Copper,L1,Top,Signal*
%FSLAX46Y46*%
G04 Gerber Fmt 4.6, Leading zero omitted, Abs format (unit mm)*
G04 Created by KiCad (PCBNEW 4.0.6+dfsg1-1) date Sun Oct 29 21:06:04 2017*
%MOMM*%
%LPD*%
G01*
G04 APERTURE LIST*
%ADD10C,0.100000*%
%ADD11C,0.300000*%
%ADD12R,1.500000X1.100000*%
%ADD13R,1.250000X1.500000*%
%ADD14R,2.600000X1.800000*%
%ADD15R,1.500000X1.250000*%
%ADD16R,2.600000X2.600000*%
%ADD17C,2.600000*%
%ADD18R,3.150000X1.000000*%
%ADD19R,1.500000X1.300000*%
%ADD20R,1.300000X1.500000*%
%ADD21R,0.700000X0.350000*%
%ADD22R,2.500000X1.100000*%
%ADD23R,1.100000X2.500000*%
%ADD24C,0.685800*%
%ADD25C,0.254000*%
G04 APERTURE END LIST*
D10*
D11*
X179451001Y-100945024D02*
X180176716Y-100945024D01*
X179813859Y-102215024D02*
X179813859Y-100945024D01*
X181083858Y-102154548D02*
X180962906Y-102215024D01*
X180721001Y-102215024D01*
X180600049Y-102154548D01*
X180539573Y-102033595D01*
X180539573Y-101549786D01*
X180600049Y-101428833D01*
X180721001Y-101368357D01*
X180962906Y-101368357D01*
X181083858Y-101428833D01*
X181144335Y-101549786D01*
X181144335Y-101670738D01*
X180539573Y-101791690D01*
X181688620Y-102215024D02*
X181688620Y-101368357D01*
X181688620Y-101489310D02*
X181749096Y-101428833D01*
X181870049Y-101368357D01*
X182051477Y-101368357D01*
X182172429Y-101428833D01*
X182232906Y-101549786D01*
X182232906Y-102215024D01*
X182232906Y-101549786D02*
X182293382Y-101428833D01*
X182414334Y-101368357D01*
X182595763Y-101368357D01*
X182716715Y-101428833D01*
X182777191Y-101549786D01*
X182777191Y-102215024D01*
X183381953Y-101368357D02*
X183381953Y-102638357D01*
X183381953Y-101428833D02*
X183502905Y-101368357D01*
X183744810Y-101368357D01*
X183865762Y-101428833D01*
X183926239Y-101489310D01*
X183986715Y-101610262D01*
X183986715Y-101973119D01*
X183926239Y-102094071D01*
X183865762Y-102154548D01*
X183744810Y-102215024D01*
X183502905Y-102215024D01*
X183381953Y-102154548D01*
X185014810Y-102154548D02*
X184893858Y-102215024D01*
X184651953Y-102215024D01*
X184531001Y-102154548D01*
X184470525Y-102033595D01*
X184470525Y-101549786D01*
X184531001Y-101428833D01*
X184651953Y-101368357D01*
X184893858Y-101368357D01*
X185014810Y-101428833D01*
X185075287Y-101549786D01*
X185075287Y-101670738D01*
X184470525Y-101791690D01*
X185619572Y-102215024D02*
X185619572Y-101368357D01*
X185619572Y-101610262D02*
X185680048Y-101489310D01*
X185740524Y-101428833D01*
X185861477Y-101368357D01*
X185982429Y-101368357D01*
X186950048Y-102215024D02*
X186950048Y-101549786D01*
X186889571Y-101428833D01*
X186768619Y-101368357D01*
X186526714Y-101368357D01*
X186405762Y-101428833D01*
X186950048Y-102154548D02*
X186829095Y-102215024D01*
X186526714Y-102215024D01*
X186405762Y-102154548D01*
X186345286Y-102033595D01*
X186345286Y-101912643D01*
X186405762Y-101791690D01*
X186526714Y-101731214D01*
X186829095Y-101731214D01*
X186950048Y-101670738D01*
X187373381Y-101368357D02*
X187857191Y-101368357D01*
X187554810Y-100945024D02*
X187554810Y-102033595D01*
X187615286Y-102154548D01*
X187736239Y-102215024D01*
X187857191Y-102215024D01*
X188824810Y-101368357D02*
X188824810Y-102215024D01*
X188280524Y-101368357D02*
X188280524Y-102033595D01*
X188341000Y-102154548D01*
X188461953Y-102215024D01*
X188643381Y-102215024D01*
X188764333Y-102154548D01*
X188824810Y-102094071D01*
X189429572Y-102215024D02*
X189429572Y-101368357D01*
X189429572Y-101610262D02*
X189490048Y-101489310D01*
X189550524Y-101428833D01*
X189671477Y-101368357D01*
X189792429Y-101368357D01*
X190699571Y-102154548D02*
X190578619Y-102215024D01*
X190336714Y-102215024D01*
X190215762Y-102154548D01*
X190155286Y-102033595D01*
X190155286Y-101549786D01*
X190215762Y-101428833D01*
X190336714Y-101368357D01*
X190578619Y-101368357D01*
X190699571Y-101428833D01*
X190760048Y-101549786D01*
X190760048Y-101670738D01*
X190155286Y-101791690D01*
X179481238Y-104420024D02*
X179481238Y-103150024D01*
X179904571Y-104057167D01*
X180327905Y-103150024D01*
X180327905Y-104420024D01*
X181114096Y-104420024D02*
X180993143Y-104359548D01*
X180932667Y-104299071D01*
X180872191Y-104178119D01*
X180872191Y-103815262D01*
X180932667Y-103694310D01*
X180993143Y-103633833D01*
X181114096Y-103573357D01*
X181295524Y-103573357D01*
X181416476Y-103633833D01*
X181476953Y-103694310D01*
X181537429Y-103815262D01*
X181537429Y-104178119D01*
X181476953Y-104299071D01*
X181416476Y-104359548D01*
X181295524Y-104420024D01*
X181114096Y-104420024D01*
X182081715Y-103573357D02*
X182081715Y-104420024D01*
X182081715Y-103694310D02*
X182142191Y-103633833D01*
X182263144Y-103573357D01*
X182444572Y-103573357D01*
X182565524Y-103633833D01*
X182626001Y-103754786D01*
X182626001Y-104420024D01*
X183230763Y-104420024D02*
X183230763Y-103573357D01*
X183230763Y-103150024D02*
X183170287Y-103210500D01*
X183230763Y-103270976D01*
X183291239Y-103210500D01*
X183230763Y-103150024D01*
X183230763Y-103270976D01*
X183654096Y-103573357D02*
X184137906Y-103573357D01*
X183835525Y-103150024D02*
X183835525Y-104238595D01*
X183896001Y-104359548D01*
X184016954Y-104420024D01*
X184137906Y-104420024D01*
X184742668Y-104420024D02*
X184621715Y-104359548D01*
X184561239Y-104299071D01*
X184500763Y-104178119D01*
X184500763Y-103815262D01*
X184561239Y-103694310D01*
X184621715Y-103633833D01*
X184742668Y-103573357D01*
X184924096Y-103573357D01*
X185045048Y-103633833D01*
X185105525Y-103694310D01*
X185166001Y-103815262D01*
X185166001Y-104178119D01*
X185105525Y-104299071D01*
X185045048Y-104359548D01*
X184924096Y-104420024D01*
X184742668Y-104420024D01*
X185710287Y-104420024D02*
X185710287Y-103573357D01*
X185710287Y-103815262D02*
X185770763Y-103694310D01*
X185831239Y-103633833D01*
X185952192Y-103573357D01*
X186073144Y-103573357D01*
X187343144Y-103573357D02*
X187645525Y-104420024D01*
X187947905Y-103573357D01*
X188673620Y-103150024D02*
X188794572Y-103150024D01*
X188915524Y-103210500D01*
X188976001Y-103270976D01*
X189036477Y-103391929D01*
X189096953Y-103633833D01*
X189096953Y-103936214D01*
X189036477Y-104178119D01*
X188976001Y-104299071D01*
X188915524Y-104359548D01*
X188794572Y-104420024D01*
X188673620Y-104420024D01*
X188552667Y-104359548D01*
X188492191Y-104299071D01*
X188431715Y-104178119D01*
X188371239Y-103936214D01*
X188371239Y-103633833D01*
X188431715Y-103391929D01*
X188492191Y-103270976D01*
X188552667Y-103210500D01*
X188673620Y-103150024D01*
X189641239Y-104299071D02*
X189701715Y-104359548D01*
X189641239Y-104420024D01*
X189580763Y-104359548D01*
X189641239Y-104299071D01*
X189641239Y-104420024D01*
X190911239Y-104420024D02*
X190185525Y-104420024D01*
X190548382Y-104420024D02*
X190548382Y-103150024D01*
X190427430Y-103331452D01*
X190306477Y-103452405D01*
X190185525Y-103512881D01*
D12*
X154210000Y-120969000D03*
X154210000Y-119569000D03*
X158210000Y-120969000D03*
X158210000Y-119569000D03*
D13*
X155448000Y-108986000D03*
X155448000Y-111486000D03*
D14*
X176706000Y-133604000D03*
X173306000Y-133604000D03*
D15*
X176256000Y-131572000D03*
X173756000Y-131572000D03*
D12*
X154210000Y-115889000D03*
X154210000Y-114489000D03*
X158210000Y-115889000D03*
X158210000Y-114489000D03*
D16*
X158242000Y-128016000D03*
D17*
X158242000Y-134016000D03*
X162942000Y-131016000D03*
D18*
X187945000Y-115824000D03*
X182895000Y-115824000D03*
X187945000Y-113284000D03*
X182895000Y-113284000D03*
X187945000Y-110744000D03*
X182895000Y-110744000D03*
D19*
X183468000Y-124460000D03*
X180768000Y-124460000D03*
D20*
X185547000Y-127936000D03*
X185547000Y-130636000D03*
X184150000Y-122000000D03*
X184150000Y-119300000D03*
X180975000Y-122000000D03*
X180975000Y-119300000D03*
X157988000Y-108886000D03*
X157988000Y-111586000D03*
D21*
X184513000Y-133899000D03*
X184513000Y-134549000D03*
X184513000Y-135199000D03*
X184513000Y-135849000D03*
X182263000Y-135849000D03*
X182263000Y-135199000D03*
X182263000Y-134549000D03*
X182263000Y-133899000D03*
D22*
X161858501Y-108543001D03*
X161858501Y-110543001D03*
X161858501Y-112543001D03*
X161858501Y-114543001D03*
X161858501Y-116543001D03*
X161858501Y-118543001D03*
X161858501Y-120543001D03*
X161858501Y-122543001D03*
X177258501Y-122543001D03*
X177258501Y-120543001D03*
X177258501Y-118543001D03*
X177258501Y-116543001D03*
X177258501Y-114543001D03*
X177258501Y-112543001D03*
X177258501Y-110543001D03*
X177258501Y-108543001D03*
D23*
X164548501Y-124243001D03*
X166548501Y-124243001D03*
X168548501Y-124243001D03*
X170548501Y-124243001D03*
X172548501Y-124243001D03*
X174548501Y-124243001D03*
D24*
X176784000Y-136779000D03*
X183134000Y-128778000D03*
X159385000Y-123825000D03*
X159512000Y-110744000D03*
X187960000Y-118364000D03*
X180467000Y-135001000D03*
X182626000Y-132842000D03*
X184785000Y-123571000D03*
X157353000Y-123317000D03*
X180213000Y-137414000D03*
X185547000Y-125476000D03*
X188849000Y-125476000D03*
X159512000Y-113030000D03*
X167132000Y-132334000D03*
X170815000Y-127000000D03*
X167640000Y-109855000D03*
X156210000Y-121412000D03*
X156210000Y-119126000D03*
X156210000Y-116332000D03*
X156210000Y-114046000D03*
X185420000Y-110490000D03*
X173990000Y-113030000D03*
X170815000Y-113030000D03*
X182245000Y-111760000D03*
X183388000Y-135890000D03*
X173990000Y-116205000D03*
X165100000Y-113030000D03*
X175260000Y-118110000D03*
X175260000Y-120015000D03*
D25*
X175074000Y-130556000D02*
X174965000Y-130665000D01*
X176256000Y-131572000D02*
X176256000Y-133154000D01*
X176256000Y-133154000D02*
X176784000Y-133682000D01*
X176784000Y-133682000D02*
X176784000Y-136779000D01*
X185547000Y-127936000D02*
X183976000Y-127936000D01*
X183976000Y-127936000D02*
X183134000Y-128778000D01*
X162558501Y-122543001D02*
X160666999Y-122543001D01*
X160666999Y-122543001D02*
X159385000Y-123825000D01*
X157988000Y-111586000D02*
X158670000Y-111586000D01*
X158670000Y-111586000D02*
X159512000Y-110744000D01*
X187945000Y-115824000D02*
X187945000Y-118349000D01*
X187945000Y-118349000D02*
X187960000Y-118364000D01*
X182263000Y-135199000D02*
X180665000Y-135199000D01*
X180665000Y-135199000D02*
X180467000Y-135001000D01*
X182263000Y-133899000D02*
X182263000Y-133205000D01*
X182263000Y-133205000D02*
X182626000Y-132842000D01*
X183468000Y-124460000D02*
X183896000Y-124460000D01*
X183896000Y-124460000D02*
X184785000Y-123571000D01*
X180975000Y-122000000D02*
X184150000Y-122000000D01*
X184150000Y-122000000D02*
X184785000Y-122635000D01*
X184785000Y-122635000D02*
X184785000Y-123571000D01*
X182263000Y-134549000D02*
X181412000Y-134549000D01*
X181412000Y-134549000D02*
X181229000Y-134366000D01*
X184513000Y-133899000D02*
X184513000Y-133114000D01*
X184531000Y-133132000D02*
X184531000Y-133223000D01*
X184513000Y-133114000D02*
X184531000Y-133132000D01*
X155448000Y-108986000D02*
X157888000Y-108986000D01*
X157888000Y-108986000D02*
X157988000Y-108886000D01*
X162558501Y-108543001D02*
X158330999Y-108543001D01*
X158330999Y-108543001D02*
X157988000Y-108886000D01*
X166328001Y-108543001D02*
X162558501Y-108543001D01*
X167640000Y-109855000D02*
X166328001Y-108543001D01*
X154210000Y-120969000D02*
X155767000Y-120969000D01*
X155767000Y-120969000D02*
X156210000Y-121412000D01*
X154210000Y-119569000D02*
X155767000Y-119569000D01*
X155767000Y-119569000D02*
X156210000Y-119126000D01*
X158210000Y-120969000D02*
X162132502Y-120969000D01*
X162132502Y-120969000D02*
X162558501Y-120543001D01*
X158210000Y-119569000D02*
X158210000Y-119412000D01*
X158210000Y-119412000D02*
X159078999Y-118543001D01*
X159078999Y-118543001D02*
X162558501Y-118543001D01*
X154210000Y-115889000D02*
X155513000Y-115889000D01*
X155513000Y-115889000D02*
X156210000Y-116332000D01*
X154210000Y-114489000D02*
X155767000Y-114489000D01*
X155767000Y-114489000D02*
X156210000Y-114046000D01*
X158210000Y-115889000D02*
X158210000Y-116046000D01*
X158210000Y-116046000D02*
X158707001Y-116543001D01*
X158707001Y-116543001D02*
X162558501Y-116543001D01*
X158210000Y-114489000D02*
X162504500Y-114489000D01*
X162504500Y-114489000D02*
X162558501Y-114543001D01*
X158441999Y-114257001D02*
X158210000Y-114489000D01*
X182895000Y-115824000D02*
X179959000Y-115824000D01*
X179123001Y-110543001D02*
X176558501Y-110543001D01*
X179705000Y-111125000D02*
X179123001Y-110543001D01*
X179705000Y-115570000D02*
X179705000Y-111125000D01*
X179959000Y-115824000D02*
X179705000Y-115570000D01*
X187945000Y-113284000D02*
X186944000Y-113284000D01*
X186944000Y-113284000D02*
X185420000Y-111760000D01*
X185420000Y-111760000D02*
X185420000Y-110490000D01*
X182895000Y-113284000D02*
X180594000Y-113284000D01*
X179663001Y-108543001D02*
X176558501Y-108543001D01*
X180340000Y-109220000D02*
X179663001Y-108543001D01*
X180340000Y-113030000D02*
X180340000Y-109220000D01*
X180594000Y-113284000D02*
X180340000Y-113030000D01*
X170815000Y-113030000D02*
X173990000Y-113030000D01*
X182895000Y-110744000D02*
X182895000Y-111110000D01*
X182895000Y-111110000D02*
X182245000Y-111760000D01*
X182895000Y-110744000D02*
X182895000Y-110505000D01*
X182263000Y-135849000D02*
X179791000Y-135849000D01*
X178816000Y-126412000D02*
X180768000Y-124460000D01*
X178816000Y-134874000D02*
X178816000Y-126412000D01*
X179791000Y-135849000D02*
X178816000Y-134874000D01*
X185547000Y-130636000D02*
X185547000Y-134366000D01*
X185364000Y-134549000D02*
X184513000Y-134549000D01*
X185547000Y-134366000D02*
X185364000Y-134549000D01*
X184513000Y-135199000D02*
X186365000Y-135199000D01*
X185594000Y-119300000D02*
X184150000Y-119300000D01*
X186944000Y-120650000D02*
X185594000Y-119300000D01*
X186944000Y-134620000D02*
X186944000Y-120650000D01*
X186365000Y-135199000D02*
X186944000Y-134620000D01*
X184150000Y-119300000D02*
X184705000Y-119300000D01*
X176558501Y-114543001D02*
X178043001Y-114543001D01*
X178043001Y-114543001D02*
X179070000Y-115570000D01*
X179070000Y-115570000D02*
X179070000Y-116205000D01*
X179070000Y-116205000D02*
X180340000Y-117475000D01*
X180340000Y-117475000D02*
X182325000Y-117475000D01*
X182325000Y-117475000D02*
X184150000Y-119300000D01*
X184513000Y-135849000D02*
X183429000Y-135849000D01*
X183429000Y-135849000D02*
X183388000Y-135890000D01*
X180975000Y-119300000D02*
X180895000Y-119300000D01*
X180895000Y-119300000D02*
X178138001Y-116543001D01*
X178138001Y-116543001D02*
X176558501Y-116543001D01*
X176558501Y-116543001D02*
X174328001Y-116543001D01*
X174328001Y-116543001D02*
X173990000Y-116205000D01*
X162558501Y-112543001D02*
X164613001Y-112543001D01*
X164613001Y-112543001D02*
X165100000Y-113030000D01*
X176558501Y-118543001D02*
X175693001Y-118543001D01*
X175693001Y-118543001D02*
X175260000Y-118110000D01*
X175788001Y-120543001D02*
X176558501Y-120543001D01*
X175260000Y-120015000D02*
X175788001Y-120543001D01*
X168548501Y-123543001D02*
X168548501Y-125329499D01*
G36*
X191085000Y-140920000D02*
X153720000Y-140920000D01*
X153720000Y-135385459D01*
X157052146Y-135385459D01*
X157187504Y-135683455D01*
X157905880Y-135960066D01*
X158675427Y-135940710D01*
X159296496Y-135683455D01*
X159431854Y-135385459D01*
X158242000Y-134195605D01*
X157052146Y-135385459D01*
X153720000Y-135385459D01*
X153720000Y-133679880D01*
X156297934Y-133679880D01*
X156317290Y-134449427D01*
X156574545Y-135070496D01*
X156872541Y-135205854D01*
X158062395Y-134016000D01*
X158421605Y-134016000D01*
X159611459Y-135205854D01*
X159909455Y-135070496D01*
X160186066Y-134352120D01*
X160174437Y-133889750D01*
X171371000Y-133889750D01*
X171371000Y-134630310D01*
X171467673Y-134863699D01*
X171646302Y-135042327D01*
X171879691Y-135139000D01*
X173020250Y-135139000D01*
X173179000Y-134980250D01*
X173179000Y-133731000D01*
X171529750Y-133731000D01*
X171371000Y-133889750D01*
X160174437Y-133889750D01*
X160166710Y-133582573D01*
X159909455Y-132961504D01*
X159611459Y-132826146D01*
X158421605Y-134016000D01*
X158062395Y-134016000D01*
X156872541Y-132826146D01*
X156574545Y-132961504D01*
X156297934Y-133679880D01*
X153720000Y-133679880D01*
X153720000Y-132646541D01*
X157052146Y-132646541D01*
X158242000Y-133836395D01*
X159431854Y-132646541D01*
X159313264Y-132385459D01*
X161752146Y-132385459D01*
X161887504Y-132683455D01*
X162605880Y-132960066D01*
X163375427Y-132940710D01*
X163996496Y-132683455D01*
X164131854Y-132385459D01*
X162942000Y-131195605D01*
X161752146Y-132385459D01*
X159313264Y-132385459D01*
X159296496Y-132348545D01*
X158578120Y-132071934D01*
X157808573Y-132091290D01*
X157187504Y-132348545D01*
X157052146Y-132646541D01*
X153720000Y-132646541D01*
X153720000Y-130679880D01*
X160997934Y-130679880D01*
X161017290Y-131449427D01*
X161274545Y-132070496D01*
X161572541Y-132205854D01*
X162762395Y-131016000D01*
X163121605Y-131016000D01*
X164311459Y-132205854D01*
X164609455Y-132070496D01*
X164886066Y-131352120D01*
X164872700Y-130820690D01*
X172371000Y-130820690D01*
X172371000Y-131286250D01*
X172529750Y-131445000D01*
X173629000Y-131445000D01*
X173629000Y-130470750D01*
X173470250Y-130312000D01*
X172879691Y-130312000D01*
X172646302Y-130408673D01*
X172467673Y-130587301D01*
X172371000Y-130820690D01*
X164872700Y-130820690D01*
X164866710Y-130582573D01*
X164609455Y-129961504D01*
X164311459Y-129826146D01*
X163121605Y-131016000D01*
X162762395Y-131016000D01*
X161572541Y-129826146D01*
X161274545Y-129961504D01*
X160997934Y-130679880D01*
X153720000Y-130679880D01*
X153720000Y-126716000D01*
X156294560Y-126716000D01*
X156294560Y-129316000D01*
X156338838Y-129551317D01*
X156477910Y-129767441D01*
X156690110Y-129912431D01*
X156942000Y-129963440D01*
X159542000Y-129963440D01*
X159777317Y-129919162D01*
X159993441Y-129780090D01*
X160084691Y-129646541D01*
X161752146Y-129646541D01*
X162942000Y-130836395D01*
X164131854Y-129646541D01*
X163996496Y-129348545D01*
X163278120Y-129071934D01*
X162508573Y-129091290D01*
X161887504Y-129348545D01*
X161752146Y-129646541D01*
X160084691Y-129646541D01*
X160138431Y-129567890D01*
X160189440Y-129316000D01*
X160189440Y-126716000D01*
X160145162Y-126480683D01*
X160006090Y-126264559D01*
X159793890Y-126119569D01*
X159542000Y-126068560D01*
X156942000Y-126068560D01*
X156706683Y-126112838D01*
X156490559Y-126251910D01*
X156345569Y-126464110D01*
X156294560Y-126716000D01*
X153720000Y-126716000D01*
X153720000Y-122166440D01*
X154960000Y-122166440D01*
X155195317Y-122122162D01*
X155403464Y-121988223D01*
X155655341Y-122240540D01*
X156014630Y-122389730D01*
X156403663Y-122390069D01*
X156763212Y-122241507D01*
X157018969Y-121986196D01*
X157208110Y-122115431D01*
X157460000Y-122166440D01*
X158960000Y-122166440D01*
X159195317Y-122122162D01*
X159411441Y-121983090D01*
X159556431Y-121770890D01*
X159564509Y-121731000D01*
X160018979Y-121731000D01*
X160012070Y-121741111D01*
X159961061Y-121993001D01*
X159961061Y-122171308D01*
X159285357Y-122847013D01*
X159191337Y-122846931D01*
X158831788Y-122995493D01*
X158556460Y-123270341D01*
X158407270Y-123629630D01*
X158406931Y-124018663D01*
X158555493Y-124378212D01*
X158830341Y-124653540D01*
X159189630Y-124802730D01*
X159578663Y-124803069D01*
X159938212Y-124654507D01*
X160213540Y-124379659D01*
X160362730Y-124020370D01*
X160362813Y-123924817D01*
X160557515Y-123730116D01*
X160608501Y-123740441D01*
X163108501Y-123740441D01*
X163343818Y-123696163D01*
X163351061Y-123691502D01*
X163351061Y-125493001D01*
X163395339Y-125728318D01*
X163534411Y-125944442D01*
X163746611Y-126089432D01*
X163998501Y-126140441D01*
X165098501Y-126140441D01*
X165333818Y-126096163D01*
X165549942Y-125957091D01*
X165550891Y-125955702D01*
X165746611Y-126089432D01*
X165998501Y-126140441D01*
X167098501Y-126140441D01*
X167333818Y-126096163D01*
X167549942Y-125957091D01*
X167550891Y-125955702D01*
X167746611Y-126089432D01*
X167998501Y-126140441D01*
X169098501Y-126140441D01*
X169333818Y-126096163D01*
X169549942Y-125957091D01*
X169550891Y-125955702D01*
X169746611Y-126089432D01*
X169998501Y-126140441D01*
X171098501Y-126140441D01*
X171333818Y-126096163D01*
X171549942Y-125957091D01*
X171550891Y-125955702D01*
X171746611Y-126089432D01*
X171998501Y-126140441D01*
X173098501Y-126140441D01*
X173333818Y-126096163D01*
X173549942Y-125957091D01*
X173550891Y-125955702D01*
X173746611Y-126089432D01*
X173998501Y-126140441D01*
X175098501Y-126140441D01*
X175333818Y-126096163D01*
X175549942Y-125957091D01*
X175694932Y-125744891D01*
X175745941Y-125493001D01*
X175745941Y-123671564D01*
X175882192Y-123728001D01*
X176972751Y-123728001D01*
X177131501Y-123569251D01*
X177131501Y-122670001D01*
X177385501Y-122670001D01*
X177385501Y-123569251D01*
X177544251Y-123728001D01*
X178634810Y-123728001D01*
X178868199Y-123631328D01*
X179046828Y-123452700D01*
X179143501Y-123219311D01*
X179143501Y-122828751D01*
X178984751Y-122670001D01*
X177385501Y-122670001D01*
X177131501Y-122670001D01*
X177111501Y-122670001D01*
X177111501Y-122416001D01*
X177131501Y-122416001D01*
X177131501Y-122396001D01*
X177385501Y-122396001D01*
X177385501Y-122416001D01*
X178984751Y-122416001D01*
X179143501Y-122257251D01*
X179143501Y-121866691D01*
X179046828Y-121633302D01*
X178964275Y-121550749D01*
X179104932Y-121344891D01*
X179155941Y-121093001D01*
X179155941Y-119993001D01*
X179111663Y-119757684D01*
X178972591Y-119541560D01*
X178971202Y-119540611D01*
X179104932Y-119344891D01*
X179155941Y-119093001D01*
X179155941Y-118638572D01*
X179677560Y-119160191D01*
X179677560Y-120050000D01*
X179721838Y-120285317D01*
X179860910Y-120501441D01*
X180073110Y-120646431D01*
X180086197Y-120649081D01*
X179873559Y-120785910D01*
X179728569Y-120998110D01*
X179677560Y-121250000D01*
X179677560Y-122750000D01*
X179721838Y-122985317D01*
X179855559Y-123193125D01*
X179782683Y-123206838D01*
X179566559Y-123345910D01*
X179421569Y-123558110D01*
X179370560Y-123810000D01*
X179370560Y-124779810D01*
X178277185Y-125873185D01*
X178112004Y-126120395D01*
X178054000Y-126412000D01*
X178054000Y-132066280D01*
X178006000Y-132056560D01*
X177653440Y-132056560D01*
X177653440Y-130947000D01*
X177609162Y-130711683D01*
X177470090Y-130495559D01*
X177257890Y-130350569D01*
X177006000Y-130299560D01*
X175784990Y-130299560D01*
X175777996Y-130264396D01*
X175612815Y-130017185D01*
X175365604Y-129852004D01*
X175074000Y-129794001D01*
X174782395Y-129852004D01*
X174535184Y-130017185D01*
X174426185Y-130126185D01*
X174302027Y-130312000D01*
X174041750Y-130312000D01*
X173883000Y-130470750D01*
X173883000Y-131445000D01*
X173903000Y-131445000D01*
X173903000Y-131699000D01*
X173883000Y-131699000D01*
X173883000Y-131719000D01*
X173629000Y-131719000D01*
X173629000Y-131699000D01*
X172529750Y-131699000D01*
X172371000Y-131857750D01*
X172371000Y-132069000D01*
X171879691Y-132069000D01*
X171646302Y-132165673D01*
X171467673Y-132344301D01*
X171371000Y-132577690D01*
X171371000Y-133318250D01*
X171529750Y-133477000D01*
X173179000Y-133477000D01*
X173179000Y-133457000D01*
X173433000Y-133457000D01*
X173433000Y-133477000D01*
X173453000Y-133477000D01*
X173453000Y-133731000D01*
X173433000Y-133731000D01*
X173433000Y-134980250D01*
X173591750Y-135139000D01*
X174732309Y-135139000D01*
X174965698Y-135042327D01*
X175007660Y-135000366D01*
X175154110Y-135100431D01*
X175406000Y-135151440D01*
X176022000Y-135151440D01*
X176022000Y-136157917D01*
X175955460Y-136224341D01*
X175806270Y-136583630D01*
X175805931Y-136972663D01*
X175954493Y-137332212D01*
X176229341Y-137607540D01*
X176588630Y-137756730D01*
X176977663Y-137757069D01*
X177337212Y-137608507D01*
X177612540Y-137333659D01*
X177761730Y-136974370D01*
X177762069Y-136585337D01*
X177613507Y-136225788D01*
X177546000Y-136158163D01*
X177546000Y-135151440D01*
X178006000Y-135151440D01*
X178105464Y-135132725D01*
X178112004Y-135165605D01*
X178226385Y-135336788D01*
X178277185Y-135412815D01*
X179252184Y-136387815D01*
X179499395Y-136552996D01*
X179791000Y-136611000D01*
X181647307Y-136611000D01*
X181661110Y-136620431D01*
X181913000Y-136671440D01*
X182613000Y-136671440D01*
X182758915Y-136643984D01*
X182833341Y-136718540D01*
X183192630Y-136867730D01*
X183581663Y-136868069D01*
X183941212Y-136719507D01*
X184018646Y-136642208D01*
X184163000Y-136671440D01*
X184863000Y-136671440D01*
X185098317Y-136627162D01*
X185314441Y-136488090D01*
X185459431Y-136275890D01*
X185510440Y-136024000D01*
X185510440Y-135961000D01*
X186365000Y-135961000D01*
X186656605Y-135902996D01*
X186903815Y-135737815D01*
X187482816Y-135158815D01*
X187610254Y-134968090D01*
X187647996Y-134911605D01*
X187706000Y-134620000D01*
X187706000Y-120650000D01*
X187647996Y-120358395D01*
X187613390Y-120306604D01*
X187482815Y-120111184D01*
X186132815Y-118761185D01*
X185988354Y-118664659D01*
X185885605Y-118596004D01*
X185594000Y-118538000D01*
X185445182Y-118538000D01*
X185403162Y-118314683D01*
X185264090Y-118098559D01*
X185051890Y-117953569D01*
X184800000Y-117902560D01*
X183830191Y-117902560D01*
X182899070Y-116971440D01*
X184470000Y-116971440D01*
X184705317Y-116927162D01*
X184921441Y-116788090D01*
X185066431Y-116575890D01*
X185117440Y-116324000D01*
X185117440Y-115324000D01*
X185722560Y-115324000D01*
X185722560Y-116324000D01*
X185766838Y-116559317D01*
X185905910Y-116775441D01*
X186118110Y-116920431D01*
X186370000Y-116971440D01*
X187183000Y-116971440D01*
X187183000Y-117757891D01*
X187131460Y-117809341D01*
X186982270Y-118168630D01*
X186981931Y-118557663D01*
X187130493Y-118917212D01*
X187405341Y-119192540D01*
X187764630Y-119341730D01*
X188153663Y-119342069D01*
X188513212Y-119193507D01*
X188788540Y-118918659D01*
X188937730Y-118559370D01*
X188938069Y-118170337D01*
X188789507Y-117810788D01*
X188707000Y-117728137D01*
X188707000Y-116971440D01*
X189520000Y-116971440D01*
X189755317Y-116927162D01*
X189971441Y-116788090D01*
X190116431Y-116575890D01*
X190167440Y-116324000D01*
X190167440Y-115324000D01*
X190123162Y-115088683D01*
X189984090Y-114872559D01*
X189771890Y-114727569D01*
X189520000Y-114676560D01*
X186370000Y-114676560D01*
X186134683Y-114720838D01*
X185918559Y-114859910D01*
X185773569Y-115072110D01*
X185722560Y-115324000D01*
X185117440Y-115324000D01*
X185073162Y-115088683D01*
X184934090Y-114872559D01*
X184721890Y-114727569D01*
X184470000Y-114676560D01*
X181320000Y-114676560D01*
X181084683Y-114720838D01*
X180868559Y-114859910D01*
X180730477Y-115062000D01*
X180467000Y-115062000D01*
X180467000Y-114020738D01*
X180594000Y-114046000D01*
X180734008Y-114046000D01*
X180855910Y-114235441D01*
X181068110Y-114380431D01*
X181320000Y-114431440D01*
X184470000Y-114431440D01*
X184705317Y-114387162D01*
X184921441Y-114248090D01*
X185066431Y-114035890D01*
X185117440Y-113784000D01*
X185117440Y-112784000D01*
X185073162Y-112548683D01*
X184968674Y-112386304D01*
X185722560Y-113140191D01*
X185722560Y-113784000D01*
X185766838Y-114019317D01*
X185905910Y-114235441D01*
X186118110Y-114380431D01*
X186370000Y-114431440D01*
X189520000Y-114431440D01*
X189755317Y-114387162D01*
X189971441Y-114248090D01*
X190116431Y-114035890D01*
X190167440Y-113784000D01*
X190167440Y-112784000D01*
X190123162Y-112548683D01*
X189984090Y-112332559D01*
X189771890Y-112187569D01*
X189520000Y-112136560D01*
X186874191Y-112136560D01*
X186616630Y-111879000D01*
X187659250Y-111879000D01*
X187818000Y-111720250D01*
X187818000Y-110871000D01*
X188072000Y-110871000D01*
X188072000Y-111720250D01*
X188230750Y-111879000D01*
X189646309Y-111879000D01*
X189879698Y-111782327D01*
X190058327Y-111603699D01*
X190155000Y-111370310D01*
X190155000Y-111029750D01*
X189996250Y-110871000D01*
X188072000Y-110871000D01*
X187818000Y-110871000D01*
X187798000Y-110871000D01*
X187798000Y-110617000D01*
X187818000Y-110617000D01*
X187818000Y-109767750D01*
X188072000Y-109767750D01*
X188072000Y-110617000D01*
X189996250Y-110617000D01*
X190155000Y-110458250D01*
X190155000Y-110117690D01*
X190058327Y-109884301D01*
X189879698Y-109705673D01*
X189646309Y-109609000D01*
X188230750Y-109609000D01*
X188072000Y-109767750D01*
X187818000Y-109767750D01*
X187659250Y-109609000D01*
X186243691Y-109609000D01*
X186016310Y-109703184D01*
X185974659Y-109661460D01*
X185615370Y-109512270D01*
X185226337Y-109511931D01*
X184866788Y-109660493D01*
X184815596Y-109711596D01*
X184721890Y-109647569D01*
X184470000Y-109596560D01*
X181320000Y-109596560D01*
X181102000Y-109637580D01*
X181102000Y-109220000D01*
X181043996Y-108928395D01*
X180878815Y-108681185D01*
X180201816Y-108004186D01*
X180196573Y-108000683D01*
X179954606Y-107839005D01*
X179874144Y-107823000D01*
X191085000Y-107823000D01*
X191085000Y-140920000D01*
X191085000Y-140920000D01*
G37*
X191085000Y-140920000D02*
X153720000Y-140920000D01*
X153720000Y-135385459D01*
X157052146Y-135385459D01*
X157187504Y-135683455D01*
X157905880Y-135960066D01*
X158675427Y-135940710D01*
X159296496Y-135683455D01*
X159431854Y-135385459D01*
X158242000Y-134195605D01*
X157052146Y-135385459D01*
X153720000Y-135385459D01*
X153720000Y-133679880D01*
X156297934Y-133679880D01*
X156317290Y-134449427D01*
X156574545Y-135070496D01*
X156872541Y-135205854D01*
X158062395Y-134016000D01*
X158421605Y-134016000D01*
X159611459Y-135205854D01*
X159909455Y-135070496D01*
X160186066Y-134352120D01*
X160174437Y-133889750D01*
X171371000Y-133889750D01*
X171371000Y-134630310D01*
X171467673Y-134863699D01*
X171646302Y-135042327D01*
X171879691Y-135139000D01*
X173020250Y-135139000D01*
X173179000Y-134980250D01*
X173179000Y-133731000D01*
X171529750Y-133731000D01*
X171371000Y-133889750D01*
X160174437Y-133889750D01*
X160166710Y-133582573D01*
X159909455Y-132961504D01*
X159611459Y-132826146D01*
X158421605Y-134016000D01*
X158062395Y-134016000D01*
X156872541Y-132826146D01*
X156574545Y-132961504D01*
X156297934Y-133679880D01*
X153720000Y-133679880D01*
X153720000Y-132646541D01*
X157052146Y-132646541D01*
X158242000Y-133836395D01*
X159431854Y-132646541D01*
X159313264Y-132385459D01*
X161752146Y-132385459D01*
X161887504Y-132683455D01*
X162605880Y-132960066D01*
X163375427Y-132940710D01*
X163996496Y-132683455D01*
X164131854Y-132385459D01*
X162942000Y-131195605D01*
X161752146Y-132385459D01*
X159313264Y-132385459D01*
X159296496Y-132348545D01*
X158578120Y-132071934D01*
X157808573Y-132091290D01*
X157187504Y-132348545D01*
X157052146Y-132646541D01*
X153720000Y-132646541D01*
X153720000Y-130679880D01*
X160997934Y-130679880D01*
X161017290Y-131449427D01*
X161274545Y-132070496D01*
X161572541Y-132205854D01*
X162762395Y-131016000D01*
X163121605Y-131016000D01*
X164311459Y-132205854D01*
X164609455Y-132070496D01*
X164886066Y-131352120D01*
X164872700Y-130820690D01*
X172371000Y-130820690D01*
X172371000Y-131286250D01*
X172529750Y-131445000D01*
X173629000Y-131445000D01*
X173629000Y-130470750D01*
X173470250Y-130312000D01*
X172879691Y-130312000D01*
X172646302Y-130408673D01*
X172467673Y-130587301D01*
X172371000Y-130820690D01*
X164872700Y-130820690D01*
X164866710Y-130582573D01*
X164609455Y-129961504D01*
X164311459Y-129826146D01*
X163121605Y-131016000D01*
X162762395Y-131016000D01*
X161572541Y-129826146D01*
X161274545Y-129961504D01*
X160997934Y-130679880D01*
X153720000Y-130679880D01*
X153720000Y-126716000D01*
X156294560Y-126716000D01*
X156294560Y-129316000D01*
X156338838Y-129551317D01*
X156477910Y-129767441D01*
X156690110Y-129912431D01*
X156942000Y-129963440D01*
X159542000Y-129963440D01*
X159777317Y-129919162D01*
X159993441Y-129780090D01*
X160084691Y-129646541D01*
X161752146Y-129646541D01*
X162942000Y-130836395D01*
X164131854Y-129646541D01*
X163996496Y-129348545D01*
X163278120Y-129071934D01*
X162508573Y-129091290D01*
X161887504Y-129348545D01*
X161752146Y-129646541D01*
X160084691Y-129646541D01*
X160138431Y-129567890D01*
X160189440Y-129316000D01*
X160189440Y-126716000D01*
X160145162Y-126480683D01*
X160006090Y-126264559D01*
X159793890Y-126119569D01*
X159542000Y-126068560D01*
X156942000Y-126068560D01*
X156706683Y-126112838D01*
X156490559Y-126251910D01*
X156345569Y-126464110D01*
X156294560Y-126716000D01*
X153720000Y-126716000D01*
X153720000Y-122166440D01*
X154960000Y-122166440D01*
X155195317Y-122122162D01*
X155403464Y-121988223D01*
X155655341Y-122240540D01*
X156014630Y-122389730D01*
X156403663Y-122390069D01*
X156763212Y-122241507D01*
X157018969Y-121986196D01*
X157208110Y-122115431D01*
X157460000Y-122166440D01*
X158960000Y-122166440D01*
X159195317Y-122122162D01*
X159411441Y-121983090D01*
X159556431Y-121770890D01*
X159564509Y-121731000D01*
X160018979Y-121731000D01*
X160012070Y-121741111D01*
X159961061Y-121993001D01*
X159961061Y-122171308D01*
X159285357Y-122847013D01*
X159191337Y-122846931D01*
X158831788Y-122995493D01*
X158556460Y-123270341D01*
X158407270Y-123629630D01*
X158406931Y-124018663D01*
X158555493Y-124378212D01*
X158830341Y-124653540D01*
X159189630Y-124802730D01*
X159578663Y-124803069D01*
X159938212Y-124654507D01*
X160213540Y-124379659D01*
X160362730Y-124020370D01*
X160362813Y-123924817D01*
X160557515Y-123730116D01*
X160608501Y-123740441D01*
X163108501Y-123740441D01*
X163343818Y-123696163D01*
X163351061Y-123691502D01*
X163351061Y-125493001D01*
X163395339Y-125728318D01*
X163534411Y-125944442D01*
X163746611Y-126089432D01*
X163998501Y-126140441D01*
X165098501Y-126140441D01*
X165333818Y-126096163D01*
X165549942Y-125957091D01*
X165550891Y-125955702D01*
X165746611Y-126089432D01*
X165998501Y-126140441D01*
X167098501Y-126140441D01*
X167333818Y-126096163D01*
X167549942Y-125957091D01*
X167550891Y-125955702D01*
X167746611Y-126089432D01*
X167998501Y-126140441D01*
X169098501Y-126140441D01*
X169333818Y-126096163D01*
X169549942Y-125957091D01*
X169550891Y-125955702D01*
X169746611Y-126089432D01*
X169998501Y-126140441D01*
X171098501Y-126140441D01*
X171333818Y-126096163D01*
X171549942Y-125957091D01*
X171550891Y-125955702D01*
X171746611Y-126089432D01*
X171998501Y-126140441D01*
X173098501Y-126140441D01*
X173333818Y-126096163D01*
X173549942Y-125957091D01*
X173550891Y-125955702D01*
X173746611Y-126089432D01*
X173998501Y-126140441D01*
X175098501Y-126140441D01*
X175333818Y-126096163D01*
X175549942Y-125957091D01*
X175694932Y-125744891D01*
X175745941Y-125493001D01*
X175745941Y-123671564D01*
X175882192Y-123728001D01*
X176972751Y-123728001D01*
X177131501Y-123569251D01*
X177131501Y-122670001D01*
X177385501Y-122670001D01*
X177385501Y-123569251D01*
X177544251Y-123728001D01*
X178634810Y-123728001D01*
X178868199Y-123631328D01*
X179046828Y-123452700D01*
X179143501Y-123219311D01*
X179143501Y-122828751D01*
X178984751Y-122670001D01*
X177385501Y-122670001D01*
X177131501Y-122670001D01*
X177111501Y-122670001D01*
X177111501Y-122416001D01*
X177131501Y-122416001D01*
X177131501Y-122396001D01*
X177385501Y-122396001D01*
X177385501Y-122416001D01*
X178984751Y-122416001D01*
X179143501Y-122257251D01*
X179143501Y-121866691D01*
X179046828Y-121633302D01*
X178964275Y-121550749D01*
X179104932Y-121344891D01*
X179155941Y-121093001D01*
X179155941Y-119993001D01*
X179111663Y-119757684D01*
X178972591Y-119541560D01*
X178971202Y-119540611D01*
X179104932Y-119344891D01*
X179155941Y-119093001D01*
X179155941Y-118638572D01*
X179677560Y-119160191D01*
X179677560Y-120050000D01*
X179721838Y-120285317D01*
X179860910Y-120501441D01*
X180073110Y-120646431D01*
X180086197Y-120649081D01*
X179873559Y-120785910D01*
X179728569Y-120998110D01*
X179677560Y-121250000D01*
X179677560Y-122750000D01*
X179721838Y-122985317D01*
X179855559Y-123193125D01*
X179782683Y-123206838D01*
X179566559Y-123345910D01*
X179421569Y-123558110D01*
X179370560Y-123810000D01*
X179370560Y-124779810D01*
X178277185Y-125873185D01*
X178112004Y-126120395D01*
X178054000Y-126412000D01*
X178054000Y-132066280D01*
X178006000Y-132056560D01*
X177653440Y-132056560D01*
X177653440Y-130947000D01*
X177609162Y-130711683D01*
X177470090Y-130495559D01*
X177257890Y-130350569D01*
X177006000Y-130299560D01*
X175784990Y-130299560D01*
X175777996Y-130264396D01*
X175612815Y-130017185D01*
X175365604Y-129852004D01*
X175074000Y-129794001D01*
X174782395Y-129852004D01*
X174535184Y-130017185D01*
X174426185Y-130126185D01*
X174302027Y-130312000D01*
X174041750Y-130312000D01*
X173883000Y-130470750D01*
X173883000Y-131445000D01*
X173903000Y-131445000D01*
X173903000Y-131699000D01*
X173883000Y-131699000D01*
X173883000Y-131719000D01*
X173629000Y-131719000D01*
X173629000Y-131699000D01*
X172529750Y-131699000D01*
X172371000Y-131857750D01*
X172371000Y-132069000D01*
X171879691Y-132069000D01*
X171646302Y-132165673D01*
X171467673Y-132344301D01*
X171371000Y-132577690D01*
X171371000Y-133318250D01*
X171529750Y-133477000D01*
X173179000Y-133477000D01*
X173179000Y-133457000D01*
X173433000Y-133457000D01*
X173433000Y-133477000D01*
X173453000Y-133477000D01*
X173453000Y-133731000D01*
X173433000Y-133731000D01*
X173433000Y-134980250D01*
X173591750Y-135139000D01*
X174732309Y-135139000D01*
X174965698Y-135042327D01*
X175007660Y-135000366D01*
X175154110Y-135100431D01*
X175406000Y-135151440D01*
X176022000Y-135151440D01*
X176022000Y-136157917D01*
X175955460Y-136224341D01*
X175806270Y-136583630D01*
X175805931Y-136972663D01*
X175954493Y-137332212D01*
X176229341Y-137607540D01*
X176588630Y-137756730D01*
X176977663Y-137757069D01*
X177337212Y-137608507D01*
X177612540Y-137333659D01*
X177761730Y-136974370D01*
X177762069Y-136585337D01*
X177613507Y-136225788D01*
X177546000Y-136158163D01*
X177546000Y-135151440D01*
X178006000Y-135151440D01*
X178105464Y-135132725D01*
X178112004Y-135165605D01*
X178226385Y-135336788D01*
X178277185Y-135412815D01*
X179252184Y-136387815D01*
X179499395Y-136552996D01*
X179791000Y-136611000D01*
X181647307Y-136611000D01*
X181661110Y-136620431D01*
X181913000Y-136671440D01*
X182613000Y-136671440D01*
X182758915Y-136643984D01*
X182833341Y-136718540D01*
X183192630Y-136867730D01*
X183581663Y-136868069D01*
X183941212Y-136719507D01*
X184018646Y-136642208D01*
X184163000Y-136671440D01*
X184863000Y-136671440D01*
X185098317Y-136627162D01*
X185314441Y-136488090D01*
X185459431Y-136275890D01*
X185510440Y-136024000D01*
X185510440Y-135961000D01*
X186365000Y-135961000D01*
X186656605Y-135902996D01*
X186903815Y-135737815D01*
X187482816Y-135158815D01*
X187610254Y-134968090D01*
X187647996Y-134911605D01*
X187706000Y-134620000D01*
X187706000Y-120650000D01*
X187647996Y-120358395D01*
X187613390Y-120306604D01*
X187482815Y-120111184D01*
X186132815Y-118761185D01*
X185988354Y-118664659D01*
X185885605Y-118596004D01*
X185594000Y-118538000D01*
X185445182Y-118538000D01*
X185403162Y-118314683D01*
X185264090Y-118098559D01*
X185051890Y-117953569D01*
X184800000Y-117902560D01*
X183830191Y-117902560D01*
X182899070Y-116971440D01*
X184470000Y-116971440D01*
X184705317Y-116927162D01*
X184921441Y-116788090D01*
X185066431Y-116575890D01*
X185117440Y-116324000D01*
X185117440Y-115324000D01*
X185722560Y-115324000D01*
X185722560Y-116324000D01*
X185766838Y-116559317D01*
X185905910Y-116775441D01*
X186118110Y-116920431D01*
X186370000Y-116971440D01*
X187183000Y-116971440D01*
X187183000Y-117757891D01*
X187131460Y-117809341D01*
X186982270Y-118168630D01*
X186981931Y-118557663D01*
X187130493Y-118917212D01*
X187405341Y-119192540D01*
X187764630Y-119341730D01*
X188153663Y-119342069D01*
X188513212Y-119193507D01*
X188788540Y-118918659D01*
X188937730Y-118559370D01*
X188938069Y-118170337D01*
X188789507Y-117810788D01*
X188707000Y-117728137D01*
X188707000Y-116971440D01*
X189520000Y-116971440D01*
X189755317Y-116927162D01*
X189971441Y-116788090D01*
X190116431Y-116575890D01*
X190167440Y-116324000D01*
X190167440Y-115324000D01*
X190123162Y-115088683D01*
X189984090Y-114872559D01*
X189771890Y-114727569D01*
X189520000Y-114676560D01*
X186370000Y-114676560D01*
X186134683Y-114720838D01*
X185918559Y-114859910D01*
X185773569Y-115072110D01*
X185722560Y-115324000D01*
X185117440Y-115324000D01*
X185073162Y-115088683D01*
X184934090Y-114872559D01*
X184721890Y-114727569D01*
X184470000Y-114676560D01*
X181320000Y-114676560D01*
X181084683Y-114720838D01*
X180868559Y-114859910D01*
X180730477Y-115062000D01*
X180467000Y-115062000D01*
X180467000Y-114020738D01*
X180594000Y-114046000D01*
X180734008Y-114046000D01*
X180855910Y-114235441D01*
X181068110Y-114380431D01*
X181320000Y-114431440D01*
X184470000Y-114431440D01*
X184705317Y-114387162D01*
X184921441Y-114248090D01*
X185066431Y-114035890D01*
X185117440Y-113784000D01*
X185117440Y-112784000D01*
X185073162Y-112548683D01*
X184968674Y-112386304D01*
X185722560Y-113140191D01*
X185722560Y-113784000D01*
X185766838Y-114019317D01*
X185905910Y-114235441D01*
X186118110Y-114380431D01*
X186370000Y-114431440D01*
X189520000Y-114431440D01*
X189755317Y-114387162D01*
X189971441Y-114248090D01*
X190116431Y-114035890D01*
X190167440Y-113784000D01*
X190167440Y-112784000D01*
X190123162Y-112548683D01*
X189984090Y-112332559D01*
X189771890Y-112187569D01*
X189520000Y-112136560D01*
X186874191Y-112136560D01*
X186616630Y-111879000D01*
X187659250Y-111879000D01*
X187818000Y-111720250D01*
X187818000Y-110871000D01*
X188072000Y-110871000D01*
X188072000Y-111720250D01*
X188230750Y-111879000D01*
X189646309Y-111879000D01*
X189879698Y-111782327D01*
X190058327Y-111603699D01*
X190155000Y-111370310D01*
X190155000Y-111029750D01*
X189996250Y-110871000D01*
X188072000Y-110871000D01*
X187818000Y-110871000D01*
X187798000Y-110871000D01*
X187798000Y-110617000D01*
X187818000Y-110617000D01*
X187818000Y-109767750D01*
X188072000Y-109767750D01*
X188072000Y-110617000D01*
X189996250Y-110617000D01*
X190155000Y-110458250D01*
X190155000Y-110117690D01*
X190058327Y-109884301D01*
X189879698Y-109705673D01*
X189646309Y-109609000D01*
X188230750Y-109609000D01*
X188072000Y-109767750D01*
X187818000Y-109767750D01*
X187659250Y-109609000D01*
X186243691Y-109609000D01*
X186016310Y-109703184D01*
X185974659Y-109661460D01*
X185615370Y-109512270D01*
X185226337Y-109511931D01*
X184866788Y-109660493D01*
X184815596Y-109711596D01*
X184721890Y-109647569D01*
X184470000Y-109596560D01*
X181320000Y-109596560D01*
X181102000Y-109637580D01*
X181102000Y-109220000D01*
X181043996Y-108928395D01*
X180878815Y-108681185D01*
X180201816Y-108004186D01*
X180196573Y-108000683D01*
X179954606Y-107839005D01*
X179874144Y-107823000D01*
X191085000Y-107823000D01*
X191085000Y-140920000D01*
G36*
X186182000Y-120965631D02*
X186182000Y-126538560D01*
X184897000Y-126538560D01*
X184661683Y-126582838D01*
X184445559Y-126721910D01*
X184300569Y-126934110D01*
X184251990Y-127174000D01*
X183976000Y-127174000D01*
X183684395Y-127232004D01*
X183437185Y-127397185D01*
X183034357Y-127800013D01*
X182940337Y-127799931D01*
X182580788Y-127948493D01*
X182305460Y-128223341D01*
X182156270Y-128582630D01*
X182155931Y-128971663D01*
X182304493Y-129331212D01*
X182579341Y-129606540D01*
X182938630Y-129755730D01*
X183327663Y-129756069D01*
X183687212Y-129607507D01*
X183962540Y-129332659D01*
X184111730Y-128973370D01*
X184111813Y-128877817D01*
X184258123Y-128731507D01*
X184293838Y-128921317D01*
X184432910Y-129137441D01*
X184645110Y-129282431D01*
X184658197Y-129285081D01*
X184445559Y-129421910D01*
X184300569Y-129634110D01*
X184249560Y-129886000D01*
X184249560Y-131386000D01*
X184293838Y-131621317D01*
X184432910Y-131837441D01*
X184645110Y-131982431D01*
X184785000Y-132010759D01*
X184785000Y-133102750D01*
X184640000Y-133247750D01*
X184640000Y-133726560D01*
X184386000Y-133726560D01*
X184386000Y-133247750D01*
X184227250Y-133089000D01*
X184036691Y-133089000D01*
X183803302Y-133185673D01*
X183624673Y-133364301D01*
X183528000Y-133597690D01*
X183528000Y-133652750D01*
X183686750Y-133811500D01*
X183864492Y-133811500D01*
X183711559Y-133909910D01*
X183599853Y-134073397D01*
X183528000Y-134145250D01*
X183528000Y-134200310D01*
X183543268Y-134237171D01*
X183515560Y-134374000D01*
X183515560Y-134724000D01*
X183544821Y-134879507D01*
X183538194Y-134912231D01*
X183239360Y-134911970D01*
X183234081Y-134883914D01*
X183248000Y-134850310D01*
X183248000Y-134795250D01*
X183170550Y-134717800D01*
X183077090Y-134572559D01*
X183044975Y-134550616D01*
X183064441Y-134538090D01*
X183176147Y-134374603D01*
X183248000Y-134302750D01*
X183248000Y-134247690D01*
X183232732Y-134210829D01*
X183260440Y-134074000D01*
X183260440Y-133724000D01*
X183239280Y-133611544D01*
X183454540Y-133396659D01*
X183603730Y-133037370D01*
X183604069Y-132648337D01*
X183455507Y-132288788D01*
X183180659Y-132013460D01*
X182821370Y-131864270D01*
X182432337Y-131863931D01*
X182072788Y-132012493D01*
X181797460Y-132287341D01*
X181648270Y-132646630D01*
X181648154Y-132779973D01*
X181559004Y-132913395D01*
X181501000Y-133205000D01*
X181501000Y-133234530D01*
X181461559Y-133259910D01*
X181316569Y-133472110D01*
X181265560Y-133724000D01*
X181265560Y-134074000D01*
X181291919Y-134214086D01*
X181278000Y-134247690D01*
X181278000Y-134302750D01*
X181355450Y-134380200D01*
X181382346Y-134421998D01*
X181278000Y-134421998D01*
X181278000Y-134429248D01*
X181021659Y-134172460D01*
X180662370Y-134023270D01*
X180273337Y-134022931D01*
X179913788Y-134171493D01*
X179638460Y-134446341D01*
X179587851Y-134568221D01*
X179578000Y-134558370D01*
X179578000Y-126727630D01*
X180548190Y-125757440D01*
X181518000Y-125757440D01*
X181753317Y-125713162D01*
X181969441Y-125574090D01*
X182114431Y-125361890D01*
X182117081Y-125348803D01*
X182253910Y-125561441D01*
X182466110Y-125706431D01*
X182718000Y-125757440D01*
X184218000Y-125757440D01*
X184453317Y-125713162D01*
X184669441Y-125574090D01*
X184814431Y-125361890D01*
X184865440Y-125110000D01*
X184865440Y-124568190D01*
X184884643Y-124548987D01*
X184978663Y-124549069D01*
X185338212Y-124400507D01*
X185613540Y-124125659D01*
X185762730Y-123766370D01*
X185763069Y-123377337D01*
X185614507Y-123017788D01*
X185547000Y-122950163D01*
X185547000Y-122635000D01*
X185488996Y-122343395D01*
X185447440Y-122281202D01*
X185447440Y-121250000D01*
X185403162Y-121014683D01*
X185264090Y-120798559D01*
X185051890Y-120653569D01*
X185038803Y-120650919D01*
X185251441Y-120514090D01*
X185396431Y-120301890D01*
X185416947Y-120200578D01*
X186182000Y-120965631D01*
X186182000Y-120965631D01*
G37*
X186182000Y-120965631D02*
X186182000Y-126538560D01*
X184897000Y-126538560D01*
X184661683Y-126582838D01*
X184445559Y-126721910D01*
X184300569Y-126934110D01*
X184251990Y-127174000D01*
X183976000Y-127174000D01*
X183684395Y-127232004D01*
X183437185Y-127397185D01*
X183034357Y-127800013D01*
X182940337Y-127799931D01*
X182580788Y-127948493D01*
X182305460Y-128223341D01*
X182156270Y-128582630D01*
X182155931Y-128971663D01*
X182304493Y-129331212D01*
X182579341Y-129606540D01*
X182938630Y-129755730D01*
X183327663Y-129756069D01*
X183687212Y-129607507D01*
X183962540Y-129332659D01*
X184111730Y-128973370D01*
X184111813Y-128877817D01*
X184258123Y-128731507D01*
X184293838Y-128921317D01*
X184432910Y-129137441D01*
X184645110Y-129282431D01*
X184658197Y-129285081D01*
X184445559Y-129421910D01*
X184300569Y-129634110D01*
X184249560Y-129886000D01*
X184249560Y-131386000D01*
X184293838Y-131621317D01*
X184432910Y-131837441D01*
X184645110Y-131982431D01*
X184785000Y-132010759D01*
X184785000Y-133102750D01*
X184640000Y-133247750D01*
X184640000Y-133726560D01*
X184386000Y-133726560D01*
X184386000Y-133247750D01*
X184227250Y-133089000D01*
X184036691Y-133089000D01*
X183803302Y-133185673D01*
X183624673Y-133364301D01*
X183528000Y-133597690D01*
X183528000Y-133652750D01*
X183686750Y-133811500D01*
X183864492Y-133811500D01*
X183711559Y-133909910D01*
X183599853Y-134073397D01*
X183528000Y-134145250D01*
X183528000Y-134200310D01*
X183543268Y-134237171D01*
X183515560Y-134374000D01*
X183515560Y-134724000D01*
X183544821Y-134879507D01*
X183538194Y-134912231D01*
X183239360Y-134911970D01*
X183234081Y-134883914D01*
X183248000Y-134850310D01*
X183248000Y-134795250D01*
X183170550Y-134717800D01*
X183077090Y-134572559D01*
X183044975Y-134550616D01*
X183064441Y-134538090D01*
X183176147Y-134374603D01*
X183248000Y-134302750D01*
X183248000Y-134247690D01*
X183232732Y-134210829D01*
X183260440Y-134074000D01*
X183260440Y-133724000D01*
X183239280Y-133611544D01*
X183454540Y-133396659D01*
X183603730Y-133037370D01*
X183604069Y-132648337D01*
X183455507Y-132288788D01*
X183180659Y-132013460D01*
X182821370Y-131864270D01*
X182432337Y-131863931D01*
X182072788Y-132012493D01*
X181797460Y-132287341D01*
X181648270Y-132646630D01*
X181648154Y-132779973D01*
X181559004Y-132913395D01*
X181501000Y-133205000D01*
X181501000Y-133234530D01*
X181461559Y-133259910D01*
X181316569Y-133472110D01*
X181265560Y-133724000D01*
X181265560Y-134074000D01*
X181291919Y-134214086D01*
X181278000Y-134247690D01*
X181278000Y-134302750D01*
X181355450Y-134380200D01*
X181382346Y-134421998D01*
X181278000Y-134421998D01*
X181278000Y-134429248D01*
X181021659Y-134172460D01*
X180662370Y-134023270D01*
X180273337Y-134022931D01*
X179913788Y-134171493D01*
X179638460Y-134446341D01*
X179587851Y-134568221D01*
X179578000Y-134558370D01*
X179578000Y-126727630D01*
X180548190Y-125757440D01*
X181518000Y-125757440D01*
X181753317Y-125713162D01*
X181969441Y-125574090D01*
X182114431Y-125361890D01*
X182117081Y-125348803D01*
X182253910Y-125561441D01*
X182466110Y-125706431D01*
X182718000Y-125757440D01*
X184218000Y-125757440D01*
X184453317Y-125713162D01*
X184669441Y-125574090D01*
X184814431Y-125361890D01*
X184865440Y-125110000D01*
X184865440Y-124568190D01*
X184884643Y-124548987D01*
X184978663Y-124549069D01*
X185338212Y-124400507D01*
X185613540Y-124125659D01*
X185762730Y-123766370D01*
X185763069Y-123377337D01*
X185614507Y-123017788D01*
X185547000Y-122950163D01*
X185547000Y-122635000D01*
X185488996Y-122343395D01*
X185447440Y-122281202D01*
X185447440Y-121250000D01*
X185403162Y-121014683D01*
X185264090Y-120798559D01*
X185051890Y-120653569D01*
X185038803Y-120650919D01*
X185251441Y-120514090D01*
X185396431Y-120301890D01*
X185416947Y-120200578D01*
X186182000Y-120965631D01*
G36*
X154226569Y-107984110D02*
X154175560Y-108236000D01*
X154175560Y-109736000D01*
X154219838Y-109971317D01*
X154358910Y-110187441D01*
X154427006Y-110233969D01*
X154284673Y-110376302D01*
X154188000Y-110609691D01*
X154188000Y-111200250D01*
X154346750Y-111359000D01*
X155321000Y-111359000D01*
X155321000Y-111339000D01*
X155575000Y-111339000D01*
X155575000Y-111359000D01*
X155595000Y-111359000D01*
X155595000Y-111613000D01*
X155575000Y-111613000D01*
X155575000Y-112712250D01*
X155733750Y-112871000D01*
X156199310Y-112871000D01*
X156432699Y-112774327D01*
X156611327Y-112595698D01*
X156699412Y-112383043D01*
X156734838Y-112571317D01*
X156873910Y-112787441D01*
X157086110Y-112932431D01*
X157338000Y-112983440D01*
X158638000Y-112983440D01*
X158873317Y-112939162D01*
X159089441Y-112800090D01*
X159234431Y-112587890D01*
X159285440Y-112336000D01*
X159285440Y-112048190D01*
X159611643Y-111721987D01*
X159705663Y-111722069D01*
X160065212Y-111573507D01*
X160124822Y-111514000D01*
X160144411Y-111544442D01*
X160145800Y-111545391D01*
X160012070Y-111741111D01*
X159961061Y-111993001D01*
X159961061Y-113093001D01*
X160005339Y-113328318D01*
X160144411Y-113544442D01*
X160145800Y-113545391D01*
X160021712Y-113727000D01*
X159567549Y-113727000D01*
X159563162Y-113703683D01*
X159424090Y-113487559D01*
X159211890Y-113342569D01*
X158960000Y-113291560D01*
X157460000Y-113291560D01*
X157224683Y-113335838D01*
X157016536Y-113469777D01*
X156764659Y-113217460D01*
X156405370Y-113068270D01*
X156016337Y-113067931D01*
X155656788Y-113216493D01*
X155401031Y-113471804D01*
X155211890Y-113342569D01*
X154960000Y-113291560D01*
X153720000Y-113291560D01*
X153720000Y-111771750D01*
X154188000Y-111771750D01*
X154188000Y-112362309D01*
X154284673Y-112595698D01*
X154463301Y-112774327D01*
X154696690Y-112871000D01*
X155162250Y-112871000D01*
X155321000Y-112712250D01*
X155321000Y-111613000D01*
X154346750Y-111613000D01*
X154188000Y-111771750D01*
X153720000Y-111771750D01*
X153720000Y-107823000D01*
X154336651Y-107823000D01*
X154226569Y-107984110D01*
X154226569Y-107984110D01*
G37*
X154226569Y-107984110D02*
X154175560Y-108236000D01*
X154175560Y-109736000D01*
X154219838Y-109971317D01*
X154358910Y-110187441D01*
X154427006Y-110233969D01*
X154284673Y-110376302D01*
X154188000Y-110609691D01*
X154188000Y-111200250D01*
X154346750Y-111359000D01*
X155321000Y-111359000D01*
X155321000Y-111339000D01*
X155575000Y-111339000D01*
X155575000Y-111359000D01*
X155595000Y-111359000D01*
X155595000Y-111613000D01*
X155575000Y-111613000D01*
X155575000Y-112712250D01*
X155733750Y-112871000D01*
X156199310Y-112871000D01*
X156432699Y-112774327D01*
X156611327Y-112595698D01*
X156699412Y-112383043D01*
X156734838Y-112571317D01*
X156873910Y-112787441D01*
X157086110Y-112932431D01*
X157338000Y-112983440D01*
X158638000Y-112983440D01*
X158873317Y-112939162D01*
X159089441Y-112800090D01*
X159234431Y-112587890D01*
X159285440Y-112336000D01*
X159285440Y-112048190D01*
X159611643Y-111721987D01*
X159705663Y-111722069D01*
X160065212Y-111573507D01*
X160124822Y-111514000D01*
X160144411Y-111544442D01*
X160145800Y-111545391D01*
X160012070Y-111741111D01*
X159961061Y-111993001D01*
X159961061Y-113093001D01*
X160005339Y-113328318D01*
X160144411Y-113544442D01*
X160145800Y-113545391D01*
X160021712Y-113727000D01*
X159567549Y-113727000D01*
X159563162Y-113703683D01*
X159424090Y-113487559D01*
X159211890Y-113342569D01*
X158960000Y-113291560D01*
X157460000Y-113291560D01*
X157224683Y-113335838D01*
X157016536Y-113469777D01*
X156764659Y-113217460D01*
X156405370Y-113068270D01*
X156016337Y-113067931D01*
X155656788Y-113216493D01*
X155401031Y-113471804D01*
X155211890Y-113342569D01*
X154960000Y-113291560D01*
X153720000Y-113291560D01*
X153720000Y-111771750D01*
X154188000Y-111771750D01*
X154188000Y-112362309D01*
X154284673Y-112595698D01*
X154463301Y-112774327D01*
X154696690Y-112871000D01*
X155162250Y-112871000D01*
X155321000Y-112712250D01*
X155321000Y-111613000D01*
X154346750Y-111613000D01*
X154188000Y-111771750D01*
X153720000Y-111771750D01*
X153720000Y-107823000D01*
X154336651Y-107823000D01*
X154226569Y-107984110D01*
M02*
