G04 #@! TF.FileFunction,Soldermask,Bot*
%FSLAX46Y46*%
G04 Gerber Fmt 4.6, Leading zero omitted, Abs format (unit mm)*
G04 Created by KiCad (PCBNEW 4.0.6+dfsg1-1) date Sun Oct 29 21:06:04 2017*
%MOMM*%
%LPD*%
G01*
G04 APERTURE LIST*
%ADD10C,0.100000*%
%ADD11R,1.500000X1.250000*%
%ADD12R,2.600000X1.800000*%
%ADD13R,1.800000X2.600000*%
%ADD14R,0.600000X0.700000*%
%ADD15R,2.600000X2.600000*%
%ADD16C,2.600000*%
%ADD17R,1.500000X1.300000*%
%ADD18R,1.500000X0.400000*%
%ADD19R,2.000000X3.800000*%
%ADD20R,2.000000X1.500000*%
G04 APERTURE END LIST*
D10*
D11*
X184511000Y-137414000D03*
X182011000Y-137414000D03*
X180868000Y-126492000D03*
X183368000Y-126492000D03*
D12*
X165432000Y-121412000D03*
X168832000Y-121412000D03*
D11*
X165374000Y-118872000D03*
X167874000Y-118872000D03*
D13*
X167132000Y-125808000D03*
X167132000Y-129208000D03*
D14*
X161098000Y-125730000D03*
X162498000Y-125730000D03*
D15*
X158242000Y-128016000D03*
D16*
X158242000Y-134016000D03*
X162942000Y-131016000D03*
D17*
X165020000Y-114935000D03*
X167720000Y-114935000D03*
X173435000Y-114935000D03*
X170735000Y-114935000D03*
X173435000Y-118745000D03*
X170735000Y-118745000D03*
X154860000Y-118999000D03*
X157560000Y-118999000D03*
X154860000Y-121539000D03*
X157560000Y-121539000D03*
X154860000Y-116332000D03*
X157560000Y-116332000D03*
X154860000Y-114046000D03*
X157560000Y-114046000D03*
X174705000Y-121285000D03*
X172005000Y-121285000D03*
D18*
X172716500Y-110411500D03*
X172716500Y-111061500D03*
X172716500Y-111711500D03*
X170056500Y-111711500D03*
X170056500Y-111061500D03*
X170056500Y-110411500D03*
D19*
X178410000Y-132080000D03*
D20*
X172110000Y-132080000D03*
X172110000Y-129780000D03*
X172110000Y-134380000D03*
M02*
